<svg width="23" height="23" viewBox="0 0 23 23" fill="none" xmlns="http://www.w3.org/2000/svg">
<g opacity="0.8" clip-path="url(#clip0)">
<path d="M22.425 9.95899C22.4243 9.95846 22.4237 9.95776 22.4232 9.95724L13.041 0.575387C12.6411 0.175301 12.1094 -0.0449219 11.5439 -0.0449219C10.9783 -0.0449219 10.4466 0.175301 10.0465 0.575387L0.66923 9.9525C0.666071 9.95566 0.662737 9.95899 0.659754 9.96215C-0.161476 10.7881 -0.160072 12.1282 0.66379 12.9521C1.04019 13.3287 1.53714 13.5466 2.06865 13.5696C2.09041 13.5717 2.11217 13.5728 2.13411 13.5728H2.50787V20.477C2.50787 21.8435 3.61969 22.9551 4.98612 22.9551H8.65674C9.02892 22.9551 9.33057 22.6533 9.33057 22.2813V16.8682C9.33057 16.2447 9.83787 15.7376 10.4613 15.7376H12.6264C13.2498 15.7376 13.757 16.2447 13.757 16.8682V22.2813C13.757 22.6533 14.0586 22.9551 14.4308 22.9551H18.1014C19.468 22.9551 20.5797 21.8435 20.5797 20.477V13.5728H20.9264C21.4918 13.5728 22.0235 13.3525 22.4237 12.9523C23.2485 12.1272 23.2488 10.7846 22.425 9.95899ZM21.4707 11.9994C21.3253 12.1449 21.1319 12.2251 20.9264 12.2251H19.9058C19.5336 12.2251 19.232 12.5267 19.232 12.8989V20.477C19.232 21.1003 18.7249 21.6075 18.1014 21.6075H15.1046V16.8682C15.1046 15.5018 13.993 14.3899 12.6264 14.3899H10.4613C9.09473 14.3899 7.98291 15.5018 7.98291 16.8682V21.6075H4.98612C4.36283 21.6075 3.85553 21.1003 3.85553 20.477V12.8989C3.85553 12.5267 3.55389 12.2251 3.1817 12.2251H2.17868C2.16815 12.2244 2.1578 12.2239 2.14709 12.2237C1.94635 12.2202 1.75806 12.1405 1.61698 11.9993C1.31691 11.6992 1.31691 11.2108 1.61698 10.9106C1.61715 10.9106 1.61715 10.9104 1.61733 10.9102L1.61786 10.9097L10.9997 1.52822C11.145 1.38275 11.3382 1.30274 11.5439 1.30274C11.7493 1.30274 11.9425 1.38275 12.088 1.52822L21.4677 10.9078C21.4692 10.9092 21.4707 10.9106 21.4721 10.912C21.7706 11.2126 21.7701 11.6999 21.4707 11.9994Z" fill="#C4C4C4" fill-opacity="0.99"/>
</g>
<defs>
<clipPath id="clip0">
<rect width="23" height="23" fill="white"/>
</clipPath>
</defs>
</svg>
