<svg width="22" height="26" viewBox="0 0 22 26" fill="none" xmlns="http://www.w3.org/2000/svg">
<path d="M7.40748 26C3.5379 25.9777 0.337051 18.0786 0.337051 14.0557C0.337051 7.48444 5.26664 6.04581 7.16647 6.04581C8.02264 6.04581 8.93686 6.38203 9.74321 6.67956C10.3071 6.8871 10.8903 7.10135 11.2146 7.10135C11.4087 7.10135 11.8662 6.91909 12.2701 6.75918C13.1315 6.41626 14.2034 5.99005 15.4516 5.99005C15.4539 5.99005 15.4569 5.99005 15.459 5.99005C16.3911 5.99005 19.2171 6.1946 20.9161 8.74605L21.314 9.3441L20.7413 9.7763C19.923 10.3937 18.4301 11.5199 18.4301 13.7508C18.4301 16.393 20.1209 17.4091 20.9332 17.8979C21.2917 18.1136 21.6629 18.336 21.6629 18.8225C21.6629 19.1401 19.1278 25.9606 15.4464 25.9606C14.5456 25.9606 13.9088 25.6898 13.3472 25.4511C12.7789 25.2093 12.2887 25.001 11.4786 25.001C11.068 25.001 10.5488 25.1952 9.99905 25.4012C9.24784 25.6816 8.39756 26 7.43277 26H7.40748Z" fill="black"/>
<path d="M15.8416 0C15.9375 3.45698 13.4652 5.85528 10.9958 5.70487C10.5889 2.94607 13.4649 0 15.8416 0Z" fill="black"/>
</svg>
