<svg width="43" height="45" viewBox="0 0 43 45" fill="none" xmlns="http://www.w3.org/2000/svg">
<g opacity="0.45" clip-path="url(#clip0)">
<path d="M31.7461 24.9609H26.2031V23.0281C29.3012 21.2727 31.4102 17.84 31.4102 13.9014V10.3711C31.4102 4.65249 26.9644 0 21.5 0C16.0356 0 11.5898 4.65249 11.5898 10.3711V13.9014C11.5898 17.84 13.6988 21.2727 16.7969 23.0281V24.9609H11.2539C9.72606 24.9609 8.25356 25.2996 6.8774 25.9674C6.45663 26.1715 6.27372 26.6941 6.46881 27.1345C6.61091 27.4552 6.91435 27.6439 7.23131 27.6439C7.34947 27.6439 7.46974 27.6176 7.58404 27.5621C8.73715 27.0025 9.97188 26.7188 11.2539 26.7188H16.8735C17.2707 29.0145 19.1935 30.7617 21.5 30.7617C23.8065 30.7617 25.7292 29.0145 26.1265 26.7188H31.7461C36.5623 26.7188 40.4805 30.8192 40.4805 35.8594V43.2422H2.51953V35.8594C2.51953 34.8047 2.68943 33.7712 3.02478 32.7875C3.18066 32.3303 2.95281 31.8275 2.51592 31.6644C2.07895 31.5014 1.59856 31.7397 1.44277 32.1971C1.04267 33.3707 0.839844 34.6029 0.839844 35.8594V44.1211C0.839844 44.6065 1.21584 45 1.67969 45H41.3203C41.7841 45 42.1602 44.6065 42.1602 44.1211V35.8594C42.1602 29.8499 37.4884 24.9609 31.7461 24.9609ZM13.2695 13.9014V10.3711C13.2695 5.62166 16.9617 1.75781 21.5 1.75781C26.0383 1.75781 29.7305 5.62166 29.7305 10.3711V13.9014C29.7305 18.6507 26.0383 22.5146 21.5 22.5146C16.9617 22.5146 13.2695 18.6507 13.2695 13.9014ZM21.5 29.0039C19.8328 29.0039 18.4766 27.5846 18.4766 25.8398V23.7783C19.4302 24.0987 20.446 24.2725 21.5 24.2725C22.554 24.2725 23.5699 24.0987 24.5234 23.7783V25.8398C24.5234 27.5846 23.1672 29.0039 21.5 29.0039Z" fill="#2F455C"/>
<path d="M23.701 9.11487C23.701 10.3849 22.7136 11.4182 21.5 11.4182C21.0362 11.4182 20.6602 11.8117 20.6602 12.2971V14.7948C20.6602 15.2802 21.0362 15.6737 21.5 15.6737C21.9638 15.6737 22.3399 15.2802 22.3399 14.7948V13.0802C24.0774 12.6775 25.3807 11.0525 25.3807 9.11487C25.3807 6.87551 23.6398 5.05371 21.5 5.05371C19.3603 5.05371 17.6194 6.87551 17.6194 9.11487C17.6194 9.60029 17.9954 9.99378 18.4592 9.99378C18.923 9.99378 19.2991 9.60029 19.2991 9.11487C19.2991 7.84477 20.2865 6.81152 21.5 6.81152C22.7136 6.81152 23.701 7.84485 23.701 9.11487Z" fill="#2F455C"/>
<path d="M22.0937 18.9615C22.2499 18.7972 22.3398 18.5713 22.3398 18.3401C22.3398 18.109 22.25 17.8822 22.0937 17.7187C21.9376 17.5544 21.7209 17.4612 21.5 17.4612C21.2791 17.4612 21.0624 17.5544 20.9062 17.7187C20.75 17.8822 20.6602 18.1081 20.6602 18.3401C20.6602 18.5713 20.7499 18.798 20.9062 18.9615C21.0624 19.125 21.2791 19.219 21.5 19.219C21.7209 19.219 21.9376 19.125 22.0937 18.9615Z" fill="#2F455C"/>
<path d="M4.18329 29.983C4.40509 29.983 4.62085 29.889 4.77706 29.7255C4.93411 29.562 5.02313 29.3353 5.02313 29.1041C5.02313 28.873 4.93411 28.6462 4.77706 28.4819C4.62085 28.3184 4.40417 28.2252 4.18329 28.2252C3.96241 28.2252 3.74573 28.3184 3.5896 28.4819C3.43339 28.6463 3.34344 28.8722 3.34344 29.1041C3.34344 29.3353 3.43331 29.562 3.5896 29.7255C3.74573 29.889 3.96241 29.983 4.18329 29.983Z" fill="#2F455C"/>
</g>
<defs>
<clipPath id="clip0">
<rect width="43" height="45" fill="white"/>
</clipPath>
</defs>
</svg>
