<svg width="25" height="25" viewBox="0 0 25 25" fill="none" xmlns="http://www.w3.org/2000/svg">
<g clip-path="url(#clip0)">
<path d="M23.5661 6.79484C23.1175 6.21341 22.4964 5.78902 21.7916 5.58252C21.8457 5.34029 21.8733 5.09284 21.8741 4.84466C21.8739 2.92506 20.3176 1.36911 18.398 1.36936C17.9399 1.36942 17.4864 1.46001 17.0635 1.63592C16.6065 0.644722 15.6161 0.0084355 14.5246 0.0048554C13.7599 0.00831414 13.0306 0.328096 12.5101 0.88835C11.9857 0.32136 11.2484 -0.00066644 10.4761 1.03556e-06C9.38459 0.00358113 8.39424 0.639867 7.93726 1.63107C6.16402 0.895875 4.13058 1.73732 3.39533 3.51056C3.12415 4.16456 3.05916 4.88574 3.2091 5.57767C1.36699 6.11754 0.311288 8.04848 0.851154 9.89059C1.05765 10.5953 1.4821 11.2165 2.06347 11.665V11.6699C1.20807 13.3883 1.90771 15.4749 3.62615 16.3303C4.23295 16.6324 4.91475 16.7504 5.58774 16.6699C5.78962 17.3934 6.22057 18.0322 6.8159 18.4903L7.44697 24.0291H3.07804C2.80995 24.0291 2.5926 24.2465 2.5926 24.5146C2.5926 24.7826 2.80995 25 3.07804 25H21.9324C22.2005 25 22.4178 24.7826 22.4178 24.5146C22.4178 24.2465 22.2005 24.0291 21.9324 24.0291H17.5635L18.1945 18.4854C18.7852 18.0269 19.2124 17.3902 19.413 16.6699C19.5483 16.6863 19.6845 16.6944 19.8208 16.6942C21.7404 16.6968 23.2986 15.1428 23.3013 13.2232C23.302 12.6842 23.1774 12.1524 22.9373 11.6699C24.4571 10.4973 24.7387 8.31474 23.5661 6.79484ZM10.3596 24.0291L10.6751 19.7039C11.7189 20.651 13.311 20.651 14.3547 19.7039L14.6703 24.034L10.3596 24.0291ZM22.0877 11.0971C21.8544 11.229 21.7721 11.5251 21.904 11.7586C21.9113 11.7714 21.9191 11.784 21.9275 11.7961C22.7117 12.9358 22.4235 14.4954 21.2839 15.2796C20.6749 15.6985 19.912 15.8272 19.1994 15.6311C18.941 15.5596 18.6736 15.7112 18.6021 15.9696C18.5954 15.9939 18.5906 16.0187 18.5877 16.0437C18.5019 16.7764 18.0968 17.4337 17.4809 17.8398C17.3647 17.9191 17.2886 18.0448 17.2722 18.1845L16.6072 24.0291H15.6363L15.2285 18.3835C15.2167 18.2141 15.1174 18.0632 14.9664 17.9854L14.8839 17.9466C14.6476 17.8198 14.3533 17.9085 14.2266 18.1447C14.2139 18.1684 14.2032 18.193 14.1945 18.2184C13.9076 19.1568 12.9143 19.6848 11.9759 19.3979C11.4112 19.2252 10.9692 18.7831 10.7965 18.2184C10.745 18.0895 10.6407 17.9888 10.5101 17.9417C10.378 17.887 10.2296 17.887 10.0975 17.9417L10.0343 17.9709C9.88337 18.0486 9.78398 18.1995 9.77221 18.3689L9.36444 24.0146H8.39357L7.75279 18.1699C7.73641 18.0302 7.66026 17.9045 7.54405 17.8252C6.93853 17.4204 6.53969 16.7716 6.45182 16.0485C6.4213 15.7822 6.18064 15.591 5.91426 15.6215C5.8892 15.6244 5.86444 15.6292 5.84017 15.6359C4.50637 16.003 3.12755 15.2192 2.7605 13.8854C2.56438 13.1728 2.69302 12.4099 3.11202 11.801C3.26469 11.5806 3.20977 11.2782 2.98938 11.1255C2.97725 11.1171 2.96469 11.1092 2.95182 11.1019C1.74636 10.4232 1.3193 8.89581 1.998 7.69035C2.38999 6.99417 3.09053 6.5267 3.88386 6.43204V6.42718C4.14861 6.38483 4.32888 6.13586 4.28647 5.87112C4.28077 5.83544 4.27106 5.80049 4.25765 5.76699C3.7466 4.48143 4.37452 3.02506 5.66007 2.51402C6.41007 2.2159 7.25783 2.29739 7.93726 2.73301C8.1628 2.87791 8.46317 2.8125 8.60807 2.58695C8.64035 2.53665 8.66311 2.48089 8.67512 2.42233C8.86481 1.43774 9.81669 0.793326 10.8013 0.98295C11.3493 1.08853 11.8184 1.44029 12.0732 1.93689C12.198 2.17415 12.4916 2.26529 12.7288 2.14047C12.8157 2.09478 12.8867 2.02379 12.9324 1.93689C13.3902 1.04478 14.4845 0.692659 15.3765 1.15043C15.8731 1.40522 16.2249 1.87427 16.3305 2.42233C16.3845 2.68495 16.6411 2.85407 16.9037 2.80006C16.9623 2.78805 17.018 2.76529 17.0683 2.73301C18.2259 1.97549 19.7783 2.29982 20.5359 3.4574C20.985 4.14375 21.0697 5.00649 20.7625 5.76699C20.664 6.01638 20.7864 6.2983 21.0357 6.39678C21.0743 6.41201 21.1146 6.42221 21.1557 6.42718C22.5294 6.59114 23.51 7.83756 23.3461 9.21123C23.2514 10.0046 22.784 10.7051 22.0877 11.0971Z" fill="#2F455C"/>
<path d="M19.6169 7.91263C19.1289 7.31184 18.4385 6.90966 17.6751 6.78156C17.962 6.22907 18.1276 5.62167 18.1606 5.00001C18.1626 4.86931 18.1118 4.74327 18.0198 4.65049C17.927 4.55844 17.801 4.50766 17.6703 4.50972C16.7378 4.53775 15.8447 4.89158 15.146 5.50972C14.9221 5.71742 14.7174 5.94485 14.5344 6.18933C13.8939 5.89091 13.192 5.74789 12.4858 5.77185H12.4421C11.7358 5.74661 11.0337 5.88969 10.3936 6.18933C10.2194 5.93903 10.0228 5.70505 9.8062 5.4903C9.10754 4.87216 8.21439 4.51833 7.28193 4.4903C7.15001 4.48126 7.02125 4.53314 6.93241 4.63108C6.84036 4.72386 6.78957 4.84989 6.79164 4.98059C6.82192 5.60887 6.98751 6.22319 7.27707 6.78156C6.54127 6.91694 5.87829 7.3113 5.40814 7.89321C5.03502 8.40383 4.87016 9.03733 4.94698 9.66506C4.94959 10.6897 5.77677 11.5211 6.80135 11.5291C7.83351 11.5291 8.67028 10.6924 8.67028 9.6602C8.67028 9.39212 8.45292 9.17477 8.18484 9.17477C7.91676 9.17477 7.6994 9.39212 7.6994 9.6602C7.73587 10.1549 7.36439 10.5854 6.86973 10.6218C6.37507 10.6582 5.94455 10.2868 5.90814 9.79212C5.90493 9.74819 5.90493 9.70407 5.90814 9.66014C5.91045 9.63108 5.91045 9.60183 5.90814 9.57276C5.85747 9.18454 5.96215 8.792 6.1994 8.48053C6.64698 7.98539 7.27101 7.68557 7.93727 7.64558C8.2971 7.99157 8.71433 8.27246 9.17028 8.47568V12.6456C9.21397 14.3252 10.528 15.696 12.2043 15.8106C12.259 15.8185 12.3146 15.8185 12.3693 15.8106H12.5878C12.6296 15.8161 12.6721 15.8161 12.714 15.8106C14.3902 15.696 15.7043 14.3252 15.7479 12.6456V8.49024C16.21 8.28387 16.6323 7.99795 16.9955 7.64558C17.6908 7.66967 18.3478 7.97022 18.8208 8.48053C19.0513 8.78769 19.154 9.17216 19.1072 9.55335C19.1043 9.58399 19.1043 9.61488 19.1072 9.64558C19.1436 10.1402 18.7722 10.5708 18.2775 10.6072C17.7828 10.6436 17.3523 10.2722 17.3159 9.77756C17.3127 9.73363 17.3127 9.68951 17.3159 9.64558C17.3159 9.3775 17.0986 9.16014 16.8305 9.16014C16.5624 9.16014 16.345 9.3775 16.345 9.64558C16.3858 10.677 17.2549 11.48 18.2863 11.4393C19.2456 11.4013 20.0202 10.6427 20.078 9.68441C20.1549 9.05674 19.99 8.42325 19.6169 7.91263ZM16.4518 6.83011C16.0966 7.20832 15.6504 7.48909 15.1557 7.64564C14.9319 7.69843 14.7758 7.90116 14.7819 8.13108V12.6456C14.7366 13.8492 13.7672 14.8121 12.5635 14.8495H12.3693C11.1655 14.8121 10.1962 13.8492 10.1509 12.6456V8.13108C10.157 7.90116 10.0009 7.69843 9.77707 7.64564C9.28084 7.48496 8.83448 7.19904 8.48096 6.81554C8.15165 6.45674 7.92962 6.01275 7.84018 5.53399C8.31706 5.62932 8.75766 5.85632 9.11203 6.18933C9.38041 6.45159 9.60784 6.75268 9.78678 7.08253C9.90954 7.32088 10.2023 7.41457 10.4406 7.29188C10.4579 7.28296 10.4746 7.27307 10.4907 7.26215C11.072 6.90298 11.7505 6.73332 12.4324 6.77671H12.5101C13.1921 6.73272 13.8708 6.90238 14.4518 7.26215C14.6738 7.41257 14.9756 7.35456 15.126 7.13259C15.1369 7.11651 15.1468 7.09983 15.1557 7.08253C15.3273 6.75432 15.5465 6.45335 15.8062 6.18933C16.165 5.86002 16.609 5.638 17.0878 5.54855C16.9995 6.02671 16.7792 6.47058 16.4518 6.83011Z" fill="#2F455C"/>
</g>
<defs>
<clipPath id="clip0">
<rect width="25" height="25" fill="white"/>
</clipPath>
</defs>
</svg>
