<svg width="18" height="18" viewBox="0 0 18 18" fill="none" xmlns="http://www.w3.org/2000/svg">
<path d="M12.0217 11.5438C11.5952 11.5438 11.2483 11.2435 11.2483 10.8744C11.2483 10.5053 11.5952 10.205 12.0217 10.205C12.4482 10.205 12.7952 10.5053 12.7952 10.8744C12.7952 11.0685 12.9526 11.226 13.1467 11.226C13.3409 11.226 13.4983 11.0685 13.4983 10.8744C13.4983 10.2302 13.0183 9.68848 12.3733 9.54146V9.35861C12.3733 9.16448 12.2159 9.00705 12.0217 9.00705C11.8276 9.00705 11.6702 9.16448 11.6702 9.35861V9.54146C11.0252 9.68848 10.5452 10.2302 10.5452 10.8744C10.5452 11.6312 11.2075 12.2469 12.0217 12.2469C12.4482 12.2469 12.7952 12.5472 12.7952 12.9164C12.7952 13.2855 12.4482 13.5858 12.0217 13.5858C11.5952 13.5858 11.2483 13.2855 11.2483 12.9164C11.2483 12.7223 11.0909 12.5648 10.8967 12.5648C10.7026 12.5648 10.5452 12.7223 10.5452 12.9164C10.5452 13.5606 11.0252 14.1023 11.6702 14.2493V14.4012C11.6702 14.5953 11.8276 14.7528 12.0217 14.7528C12.2159 14.7528 12.3733 14.5953 12.3733 14.4012V14.2493C13.0183 14.1023 13.4983 13.5606 13.4983 12.9164C13.4983 12.1595 12.8359 11.5438 12.0217 11.5438Z" fill="#2F455C"/>
<path d="M15.8724 9.45267C15.4131 8.73706 14.7661 8.16444 14.0013 7.79678C13.8263 7.71261 13.6162 7.7863 13.5321 7.96131C13.448 8.13631 13.5216 8.34634 13.6966 8.43047C15.0294 9.07115 15.8906 10.4401 15.8906 11.918C15.8906 12.5504 15.7347 13.1775 15.4399 13.7317C15.3487 13.9031 15.4137 14.116 15.5851 14.2072C15.6377 14.2352 15.6942 14.2485 15.7499 14.2485C15.8757 14.2485 15.9974 14.1808 16.0606 14.062C16.4094 13.4065 16.5937 12.6651 16.5937 11.918C16.5937 11.0405 16.3443 10.188 15.8724 9.45267Z" fill="#2F455C"/>
<path d="M12.5744 7.34772L12.5508 7.34769C12.3566 7.34769 12.1992 7.50508 12.1992 7.69925C12.1992 7.89342 12.3566 8.05081 12.5508 8.05081L12.5711 8.05085C12.5717 8.05085 12.5722 8.05085 12.5728 8.05085C12.7662 8.05085 12.9234 7.89454 12.9243 7.70094C12.9252 7.50677 12.7686 7.34864 12.5744 7.34772Z" fill="#2F455C"/>
<path d="M10.3502 15.4055C9.0174 14.7648 8.15625 13.3959 8.15625 11.918C8.15625 11.2856 8.31213 10.6584 8.60699 10.1042C8.69818 9.93286 8.63318 9.71996 8.46176 9.62876C8.2904 9.53757 8.07743 9.60257 7.98627 9.77399C7.63748 10.4295 7.45312 11.1709 7.45312 11.918C7.45312 12.7955 7.70256 13.648 8.17446 14.3833C8.6337 15.0989 9.28072 15.6715 10.0455 16.0392C10.0947 16.0629 10.1465 16.074 10.1976 16.074C10.3285 16.074 10.4542 16.0006 10.5147 15.8747C10.5988 15.6997 10.5252 15.4896 10.3502 15.4055Z" fill="#2F455C"/>
<path d="M11.4962 15.7852L11.4758 15.7851C11.2808 15.7847 11.1236 15.9408 11.1227 16.135C11.1218 16.3292 11.2785 16.4873 11.4726 16.4882L11.4962 16.4883C11.6903 16.4883 11.8477 16.3309 11.8477 16.1367C11.8477 15.9426 11.6903 15.7852 11.4962 15.7852Z" fill="#2F455C"/>
<path d="M13.6198 6.15824C13.577 6.05629 13.5246 5.9602 13.4636 5.87108H14.3789C15.2706 5.87108 15.9961 5.1456 15.9961 4.2539C15.9961 3.3622 15.2706 2.63671 14.3789 2.63671H11.5636C11.7426 2.37649 11.8476 2.06166 11.8476 1.72265C11.8476 0.830952 11.1222 0.105469 10.2304 0.105469H1.61718C0.725483 0.105469 0 0.830952 0 1.72265C0 2.61435 0.725483 3.33984 1.61718 3.33984H4.43249C4.25351 3.60006 4.14843 3.91489 4.14843 4.2539C4.14843 4.59291 4.25348 4.90773 4.43249 5.16796H3.51562C2.62392 5.16796 1.89843 5.89344 1.89843 6.78514C1.89843 7.29726 2.13799 7.75426 2.51068 8.05077C2.13799 8.34727 1.89843 8.80427 1.89843 9.31639C1.89843 9.82851 2.13799 10.2855 2.51068 10.582C2.13799 10.8785 1.89843 11.3355 1.89843 11.8476C1.89843 12.3598 2.13799 12.8167 2.51068 13.1133C2.13799 13.4098 1.89843 13.8668 1.89843 14.3789C1.89843 15.2706 2.62392 15.9961 3.51562 15.9961H7.65877C8.75023 17.1635 10.3029 17.8945 12.0234 17.8945C15.3189 17.8945 18 15.2135 18 11.918C18 9.1752 16.1427 6.85837 13.6198 6.15824ZM14.3789 3.33984C14.8829 3.33984 15.2929 3.7499 15.2929 4.2539C15.2929 4.7579 14.8829 5.16796 14.3789 5.16796H12.1289H5.76561C5.26158 5.16796 4.85155 4.7579 4.85155 4.2539C4.85155 3.7499 5.26158 3.33984 5.76561 3.33984H14.3789ZM1.61718 2.63671C1.11315 2.63671 0.703124 2.22665 0.703124 1.72265C0.703124 1.21865 1.11315 0.808592 1.61718 0.808592H10.2304C10.7345 0.808592 11.1445 1.21865 11.1445 1.72265C11.1445 2.22665 10.7345 2.63671 10.2304 2.63671H1.61718ZM3.51562 5.87108H12.1289C12.2705 5.87108 12.4061 5.90399 12.5277 5.96291C12.3614 5.94895 12.1933 5.94143 12.0234 5.94143C10.373 5.94143 8.8768 6.61393 7.7942 7.6992H3.51562C3.01162 7.6992 2.60156 7.28914 2.60156 6.78514C2.60156 6.28114 3.01162 5.87108 3.51562 5.87108ZM3.51562 8.40233H7.19348C6.79439 8.94911 6.48582 9.56582 6.28986 10.2304H3.51562C3.01158 10.2304 2.60156 9.82042 2.60156 9.31639C2.60156 8.81239 3.01158 8.40233 3.51562 8.40233ZM3.51562 10.9336H6.12843C6.07509 11.254 6.0469 11.5827 6.0469 11.918C6.0469 12.2044 6.06761 12.486 6.10673 12.7617H3.51562C3.01158 12.7617 2.60156 12.3517 2.60156 11.8476C2.60156 11.3436 3.01158 10.9336 3.51562 10.9336ZM3.51562 15.2929C3.01158 15.2929 2.60156 14.8829 2.60156 14.3789C2.60156 13.8748 3.01158 13.4648 3.51562 13.4648H6.25028C6.42768 14.1262 6.71585 14.7426 7.09378 15.2929H3.51562ZM12.0234 17.1914C9.11568 17.1914 6.75002 14.8257 6.75002 11.918C6.75002 9.01021 9.11568 6.64455 12.0234 6.64455C14.9312 6.64455 17.2969 9.01021 17.2969 11.918C17.2969 14.8257 14.9312 17.1914 12.0234 17.1914Z" fill="#2F455C"/>
</svg>
