<svg width="25" height="25" viewBox="0 0 25 25" fill="none" xmlns="http://www.w3.org/2000/svg">
<g clip-path="url(#clip0)">
<path d="M24.2187 4.29709H16.3461C15.9692 1.86657 13.8626 0.000213623 11.3281 0.000213623C10.7934 0.000213623 10.498 0.388837 10.498 0.781464V4.29709H8.51513C3.79775 4.29709 -0.0154316 8.12219 4.69566e-05 12.8408C0.00737117 15.0716 0.934812 17.2743 2.54453 18.884L3.28159 19.6211C2.4666 20.9541 2.23574 22.5833 2.67031 24.1043L2.76445 24.4337C2.93857 25.043 3.73007 25.2015 4.12568 24.707L7.10654 20.9809C9.41933 20.21 9.26303 20.2656 9.33373 20.2302L12.4587 18.6677C13.0334 18.3805 13.0338 17.5577 12.4587 17.2702C10.7874 16.4345 8.86235 16.1976 7.03813 16.6029L6.08051 16.8157C5.65932 16.9093 5.39375 17.3266 5.48735 17.7478C5.5809 18.169 5.99814 18.4345 6.41948 18.341C7.56127 18.0872 8.56293 17.7933 10.1007 18.0999L8.68466 18.8079C6.23979 19.6229 6.22426 19.5826 6.03061 19.8247L4.02329 22.3339C4.06992 21.4998 4.3727 20.6874 4.90703 20.0195C5.15571 19.7087 5.1309 19.2606 4.84936 18.9791L3.64946 17.7792C0.894334 15.0239 0.862986 10.6408 3.59082 7.90407C4.90488 6.58571 6.65375 5.85964 8.51523 5.85964H11.2793C11.7108 5.85964 12.0605 5.50988 12.0605 5.07839V1.63942C13.6487 1.97731 14.8437 3.39089 14.8437 5.07834C14.8437 5.50983 15.1935 5.85959 15.625 5.85959H23.3918C23.0041 9.15456 20.1943 11.719 16.7969 11.719C16.3654 11.719 16.0156 12.0687 16.0156 12.5002C16.0156 12.9317 16.3654 13.2815 16.7969 13.2815C21.3201 13.2815 25 9.60158 25 5.07834C25 4.64684 24.6502 4.29709 24.2187 4.29709Z" fill="#2F455C"/>
<path d="M14.9412 11.8901C14.6043 11.6206 14.1126 11.6752 13.8431 12.0121C13.0749 12.9723 11.0696 13.5399 9.47504 13.8312L11.1869 11.3857C11.4343 11.0322 11.3484 10.5451 10.9949 10.2977C10.6415 10.0503 10.1543 10.1361 9.90688 10.4897L9.04638 11.7189H4.29687C3.86538 11.7189 3.51562 12.0687 3.51562 12.5002C3.51562 12.9317 3.86538 13.2814 4.29687 13.2814H7.95263L7.17251 14.3959C6.79541 14.9346 7.21445 15.6728 7.87246 15.6229C7.92671 15.6187 9.21875 15.5166 10.7244 15.1653C12.8433 14.6709 14.303 13.9384 15.0632 12.9882C15.3327 12.6513 15.2781 12.1596 14.9412 11.8901Z" fill="#2F455C"/>
</g>
<defs>
<clipPath id="clip0">
<rect width="25" height="25" fill="white"/>
</clipPath>
</defs>
</svg>
