<svg width="23" height="23" viewBox="0 0 23 23" fill="none" xmlns="http://www.w3.org/2000/svg">
<g opacity="0.9">
<path d="M11.5 0C5.14426 0 0 5.14338 0 11.5C0 13.5171 0.526077 15.4872 1.52506 17.2247L0.0433426 21.8261C-0.0600128 22.1468 0.0249176 22.4985 0.263214 22.7368C0.499229 22.9728 0.850006 23.0609 1.17393 22.9567L5.77527 21.4749C7.51283 22.4739 9.4829 23 11.5 23C17.8557 23 23 17.8566 23 11.5C23 5.14426 17.8566 0 11.5 0ZM11.5 21.2031C9.67803 21.2031 7.90204 20.6948 6.36399 19.733C6.14272 19.5947 5.86792 19.5573 5.61225 19.6396L2.29066 20.7093L3.36037 17.3877C3.44144 17.1358 3.40722 16.8606 3.26684 16.636C2.30523 15.098 1.79688 13.322 1.79688 11.5C1.79688 6.14973 6.14973 1.79688 11.5 1.79688C16.8503 1.79688 21.2031 6.14973 21.2031 11.5C21.2031 16.8503 16.8503 21.2031 11.5 21.2031ZM12.623 11.5C12.623 12.1201 12.1203 12.623 11.5 12.623C10.8797 12.623 10.377 12.1201 10.377 11.5C10.377 10.8797 10.8797 10.377 11.5 10.377C12.1203 10.377 12.623 10.8797 12.623 11.5ZM17.1152 11.5C17.1152 12.1201 16.6125 12.623 15.9922 12.623C15.3719 12.623 14.8691 12.1201 14.8691 11.5C14.8691 10.8797 15.3719 10.377 15.9922 10.377C16.6125 10.377 17.1152 10.8797 17.1152 11.5ZM8.13086 11.5C8.13086 12.1201 7.62812 12.623 7.00781 12.623C6.38768 12.623 5.88477 12.1201 5.88477 11.5C5.88477 10.8797 6.38768 10.377 7.00781 10.377C7.62812 10.377 8.13086 10.8797 8.13086 11.5Z" fill="#C4C4C4" fill-opacity="0.99"/>
</g>
</svg>
