<svg width="15" height="15" viewBox="0 0 15 15" fill="none" xmlns="http://www.w3.org/2000/svg">
<path d="M2.92969 10.166C3.09149 10.166 3.22266 10.0348 3.22266 9.87305C3.22266 9.71124 3.09149 9.58008 2.92969 9.58008C2.76789 9.58008 2.63672 9.71124 2.63672 9.87305C2.63672 10.0348 2.76789 10.166 2.92969 10.166Z" fill="#2F455C" fill-opacity="0.45"/>
<path d="M2.92969 12.8027C3.09149 12.8027 3.22266 12.6716 3.22266 12.5098C3.22266 12.348 3.09149 12.2168 2.92969 12.2168C2.76789 12.2168 2.63672 12.348 2.63672 12.5098C2.63672 12.6716 2.76789 12.8027 2.92969 12.8027Z" fill="#2F455C" fill-opacity="0.45"/>
<path d="M14.707 5.33203C14.8688 5.33203 15 5.20084 15 5.03906V0.292969C15 0.131191 14.8688 0 14.707 0H12.5098C12.348 0 12.2168 0.131191 12.2168 0.292969C12.2168 0.454746 12.348 0.585938 12.5098 0.585938H14.4141V4.74609H7.96875V0.585938H9.87305C10.0349 0.585938 10.166 0.454746 10.166 0.292969C10.166 0.131191 10.0349 0 9.87305 0H7.67578C7.51397 0 7.38281 0.131191 7.38281 0.292969V5.03906C7.38281 5.20084 7.51397 5.33203 7.67578 5.33203H10.8984V6.50391H4.38337C4.48342 6.33141 4.54102 6.13134 4.54102 5.91797V5.19706C5.32746 4.89727 5.85938 4.13968 5.85938 3.28125C5.85938 3.11947 5.72821 2.98828 5.56641 2.98828H4.6875C4.47149 2.98828 4.25771 3.02262 4.05416 3.08859C3.93993 2.41983 3.62232 1.80176 3.13682 1.31628C3.02241 1.2019 2.83693 1.2019 2.7225 1.31628C2.23705 1.80176 1.91944 2.41983 1.80521 3.08859C1.60166 3.02262 1.38788 2.98828 1.17188 2.98828H0.292969C0.131162 2.98828 0 3.11947 0 3.28125C0 4.13959 0.531797 4.89712 1.31836 5.19703V5.91797C1.31836 6.13134 1.37596 6.33141 1.47601 6.50391H0.292969C0.131162 6.50391 0 6.6351 0 6.79688V14.707C0 14.8688 0.131162 15 0.292969 15C0.454775 15 0.585938 14.8688 0.585938 14.707V14.1211H5.27344V14.707C5.27344 14.8688 5.4046 15 5.56641 15C5.72821 15 5.85938 14.8688 5.85938 14.707V8.84766H14.4141V14.707C14.4141 14.8688 14.5452 15 14.707 15C14.8688 15 15 14.8688 15 14.707V6.79688C15 6.6351 14.8688 6.50391 14.707 6.50391H11.4844V5.33203H14.707ZM5.24405 3.57422C5.13413 4.11516 4.72518 4.55842 4.17533 4.69989C4.05568 4.73057 3.93229 4.74609 3.80859 4.74609H3.25251C3.33574 4.34133 3.58857 3.98294 3.95312 3.77133C4.1751 3.64236 4.42907 3.57422 4.6875 3.57422H5.24405ZM2.92969 1.96286C3.24996 2.36616 3.44772 2.85179 3.50083 3.36665C3.2676 3.53259 3.07409 3.74429 2.92972 3.98525C2.78531 3.74432 2.59184 3.53259 2.35857 3.36665C2.41166 2.85179 2.60941 2.36616 2.92969 1.96286ZM0.615322 3.57422H1.17188C1.4303 3.57422 1.68428 3.64236 1.90632 3.77136C2.27083 3.98294 2.52363 4.34133 2.60687 4.74609H2.05078C1.92709 4.74609 1.80369 4.73057 1.68434 4.69998C1.13426 4.55842 0.725244 4.11516 0.615322 3.57422ZM1.9043 5.91797V5.32661C1.95302 5.33007 2.00188 5.33203 2.05078 5.33203C2.05078 5.33203 3.90633 5.3301 3.95508 5.32661V5.91797C3.95508 6.24105 3.69223 6.50391 3.36914 6.50391H2.49023C2.16715 6.50391 1.9043 6.24105 1.9043 5.91797ZM5.27344 10.8984H0.585938V8.84766H5.27344V10.8984ZM0.585938 11.4844H5.27344V13.5352H0.585938V11.4844ZM14.4141 7.08984V8.26172H0.585938V7.08984" fill="#2F455C" fill-opacity="0.45"/>
<path d="M11.1914 0.585938C11.3532 0.585938 11.4844 0.454771 11.4844 0.292969C11.4844 0.131167 11.3532 0 11.1914 0C11.0296 0 10.8984 0.131167 10.8984 0.292969C10.8984 0.454771 11.0296 0.585938 11.1914 0.585938Z" fill="#2F455C" fill-opacity="0.45"/>
</svg>
