<svg width="25" height="25" viewBox="0 0 25 25" fill="none" xmlns="http://www.w3.org/2000/svg">
<g clip-path="url(#clip0)">
<path d="M24.8256 8.98091L22.0326 1.71901C21.5033 0.346215 19.9613 -0.33758 18.5885 0.191682C18.5686 0.199383 18.5487 0.207292 18.529 0.215461L4.57126 6.00134C3.24223 6.54653 2.58903 8.05091 3.09815 9.3942L3.48193 10.4186H2.60157C1.16545 10.4202 0.00161297 11.584 0 13.0202V22.3858C0.00161297 23.8219 1.16545 24.9857 2.60157 24.9874H20.2922C21.7283 24.9857 22.8922 23.8219 22.8938 22.3858V13.0202C22.8929 12.8789 22.8804 12.738 22.8563 12.5989L23.3396 12.4033C24.6805 11.8537 25.3395 10.3359 24.8256 8.98091ZM2.60157 11.2511H20.2922C21.2265 11.2538 21.9972 11.9834 22.0509 12.9161H0.842907C0.896603 11.9834 1.66729 11.2537 2.60157 11.2511ZM6.7853 8.74365L9.56752 7.35213L10.1394 8.78278L7.35723 10.1739L6.7853 8.74365ZM22.0613 22.3858C22.0601 23.3624 21.2688 24.1538 20.2922 24.1549H2.60157C1.62499 24.1538 0.833646 23.3624 0.832501 22.3858V17.0786H22.0613V22.3858ZM22.0613 16.2461H0.832501V13.7486H22.0613V16.2461ZM23.0274 11.6341L22.5924 11.8102C22.1431 10.9556 21.2577 10.42 20.2922 10.4186H8.7296L10.8546 9.35595C11.0483 9.25923 11.1356 9.03008 11.0552 8.82898L10.1723 6.62286C10.0869 6.40942 9.84474 6.30557 9.63131 6.3909C9.62054 6.39522 9.60997 6.39995 9.59962 6.40516L6.07023 8.17089C5.87662 8.26777 5.78958 8.49687 5.87002 8.69786L6.55849 10.4186H4.37063L3.87779 9.10412C3.5284 8.18119 3.97717 7.14785 4.89011 6.77312L18.8474 0.987241C19.7805 0.600336 20.8506 1.04307 21.2375 1.97615C21.2435 1.99066 21.2494 2.00529 21.255 2.01996L24.048 9.28186C24.4014 10.213 23.9488 11.2561 23.0274 11.6341Z" fill="#2F455C"/>
<path d="M14.9733 22.9844C15.749 23.4351 16.7068 23.4351 17.4825 22.9844C18.6752 23.6773 20.2038 23.2721 20.8967 22.0795C21.5896 20.8868 21.1844 19.3582 19.9917 18.6653C19.6089 18.443 19.1739 18.3263 18.7313 18.3273C18.2924 18.3276 17.8615 18.4442 17.4825 18.6653C16.2899 17.9724 14.7613 18.3776 14.0684 19.5702C13.3755 20.7629 13.7806 22.2915 14.9733 22.9844ZM18.1785 19.2615C18.3555 19.1962 18.5425 19.1619 18.7313 19.1599C19.6508 19.1599 20.3963 19.9054 20.3963 20.8249C20.3963 21.7445 19.6508 22.4899 18.7313 22.4899C18.5425 22.4879 18.3555 22.4536 18.1785 22.3883C18.9155 21.4763 18.9155 20.1735 18.1785 19.2615ZM17.4825 19.7352C18.0375 20.3557 18.0375 21.2941 17.4825 21.9146C16.9275 21.2941 16.9275 20.3556 17.4825 19.7352ZM16.2338 19.1599C16.4225 19.1618 16.6095 19.1962 16.7865 19.2615C16.0496 20.1735 16.0496 21.4763 16.7865 22.3883C16.6095 22.4536 16.4225 22.4879 16.2338 22.4899C15.3142 22.4899 14.5688 21.7445 14.5688 20.8249C14.5688 19.9053 15.3142 19.1599 16.2338 19.1599Z" fill="#2F455C"/>
<path d="M17.5584 8.60306L17.8966 9.3638L21.8677 7.5986L21.5295 6.83786L17.5584 8.60306Z" fill="#2F455C"/>
<path d="M20.6433 5.07555L14.9075 7.72301L15.2562 8.47854L20.992 5.83108L20.6433 5.07555Z" fill="#2F455C"/>
</g>
<defs>
<clipPath id="clip0">
<rect width="25" height="25" fill="white"/>
</clipPath>
</defs>
</svg>
