<svg width="17" height="17" viewBox="0 0 17 17" fill="none" xmlns="http://www.w3.org/2000/svg">
<g clip-path="url(#clip0)">
<path d="M3.03882 1.8681H3.0348C2.41991 1.8771 1.9198 2.38491 1.9198 3.0001V4.61775H0.250219C0.112027 4.61775 0 4.72978 0 4.86797C0 5.00616 0.112027 5.11819 0.250219 5.11819H1.91984V6.43376H0.250219C0.112027 6.43376 0 6.54579 0 6.68398C0 6.82217 0.112027 6.9342 0.250219 6.9342H1.91984V8.24974H0.250219C0.112027 8.24978 0 8.3618 0 8.5C0 8.63819 0.112027 8.75021 0.250219 8.75021H1.91984V10.0658H0.250219C0.112027 10.0658 0 10.1778 0 10.316C0 10.4542 0.112027 10.5662 0.250219 10.5662H1.91984V11.8818H0.250219C0.112027 11.8818 0 11.9938 0 12.132C0 12.2702 0.112027 12.3822 0.250219 12.3822H1.91984V13.2378C1.91984 13.376 2.03193 13.4881 2.17006 13.4881C2.30818 13.4881 2.42028 13.376 2.42028 13.2378V3.00013C2.42028 2.65681 2.69918 2.37359 3.0425 2.36824C3.18063 2.36625 3.29106 2.25279 3.28874 2.11434C3.28671 1.97754 3.17528 1.8681 3.03882 1.8681Z" fill="#2F455C" fill-opacity="0.45"/>
<path d="M13.6188 14.528H3.05211C2.79422 14.528 2.56469 14.3739 2.46694 14.1353C2.41455 14.0072 2.26875 13.9461 2.14065 13.9985C2.01252 14.0509 1.9515 14.197 2.00386 14.3248C2.17867 14.7522 2.59006 15.0284 3.05211 15.0284H4.61774V16.7497C4.61774 16.8879 4.72977 16.9999 4.86796 16.9999C5.00615 16.9999 5.11818 16.8879 5.11818 16.7497V15.0284H6.43375V16.7497C6.43375 16.8879 6.54578 16.9999 6.68397 16.9999C6.82216 16.9999 6.93419 16.8879 6.93419 16.7497V15.0284H8.24973V16.7497C8.24973 16.8879 8.36176 16.9999 8.49995 16.9999C8.63814 16.9999 8.75017 16.8879 8.75017 16.7497V15.0284H10.0657V16.7497C10.0657 16.8879 10.1777 16.9999 10.3159 16.9999C10.4541 16.9999 10.5661 16.8879 10.5661 16.7497V15.0284H11.8817V16.7497C11.8817 16.8879 11.9937 16.9999 12.1319 16.9999C12.2701 16.9999 12.3822 16.8879 12.3822 16.7497V15.0284H13.6188C13.7569 15.0284 13.869 14.9163 13.869 14.7782C13.869 14.6398 13.7569 14.528 13.6188 14.528Z" fill="#2F455C" fill-opacity="0.45"/>
<path d="M11.8937 4.25457H5.10634C4.66527 4.25457 4.30664 4.61323 4.30664 5.05427V11.842C4.30664 12.283 4.6653 12.6417 5.10634 12.6417H11.8937C12.3348 12.6417 12.6934 12.283 12.6934 11.842V5.05427C12.6934 4.6132 12.3347 4.25457 11.8937 4.25457ZM4.80704 5.05427C4.80704 4.88912 4.94115 4.75501 5.1063 4.75501H10.2822V7.36833C9.82981 7.46608 9.47248 7.82341 9.37476 8.27581H7.5308V6.99267C8.00354 6.90027 8.36121 6.48287 8.36121 5.98343C8.36121 5.41658 7.89978 4.95519 7.33264 4.95519C6.8332 4.95519 6.41587 5.31282 6.3234 5.78524H4.80704V5.05427ZM10.5325 7.84207C10.9094 7.84207 11.2161 8.149 11.2161 8.52602C11.2161 8.90305 10.9095 9.20964 10.5325 9.20964C10.1527 9.20964 9.84851 8.90002 9.84851 8.52602C9.84854 8.15133 10.1536 7.84207 10.5325 7.84207ZM7.33264 6.51156C7.04327 6.51156 6.80451 6.27621 6.80451 5.98343C6.80451 5.6925 7.04138 5.45563 7.33264 5.45563C7.6239 5.45563 7.86077 5.6925 7.86077 5.98343C7.86077 6.27721 7.62157 6.51156 7.33264 6.51156ZM6.25201 10.6012C6.10688 10.5198 6.0088 10.364 6.0088 10.1861C6.0088 9.92358 6.22266 9.71005 6.48523 9.71005C6.7478 9.71005 6.96133 9.92358 6.96133 10.1861C6.9613 10.55 6.56777 10.7797 6.25201 10.6012ZM8.27574 12.1412H6.59699V11.1563C7.08309 11.101 7.46177 10.6869 7.46177 10.1861C7.46177 9.64766 7.02372 9.20961 6.48523 9.20961C5.94641 9.20961 5.50836 9.64766 5.50836 10.1861C5.50836 10.5865 5.75058 10.9318 6.09655 11.0823V12.1412H5.10634C4.94119 12.1412 4.80708 12.0068 4.80708 11.842V6.28568H6.34943C6.35155 6.28913 6.48603 6.79936 7.03036 6.96664V8.52602C7.03036 8.66415 7.14245 8.77624 7.28058 8.77624H8.27574V12.1412ZM12.1929 11.842C12.1929 12.0068 12.0588 12.1412 11.8937 12.1412H8.77618V11.0591H12.1929V11.842ZM12.1929 10.5587H8.77618V8.77624H9.37476C9.48988 9.30939 9.96528 9.71008 10.5325 9.71008C11.1854 9.71008 11.7165 9.17893 11.7165 8.52602C11.7165 7.95885 11.3158 7.48345 10.7827 7.36833C10.7827 7.36833 10.7826 7.36833 10.7826 7.36833V4.75501H11.8937C12.0588 4.75501 12.1929 4.88912 12.1929 5.05427V10.5587H12.1929Z" fill="#2F455C" fill-opacity="0.45"/>
<path d="M16.7497 6.93424C16.8879 6.93424 16.9999 6.82221 16.9999 6.68402C16.9999 6.54583 16.8879 6.4338 16.7497 6.4338H15.0801V5.11823H16.7497C16.8879 5.11823 16.9999 5.0062 16.9999 4.86801C16.9999 4.72982 16.8879 4.61779 16.7497 4.61779H15.0801V3.00014C15.0801 2.37592 14.5723 1.86781 13.9478 1.86781H12.3821V0.250219C12.3821 0.112027 12.2701 0 12.1319 0C11.9937 0 11.8817 0.112027 11.8817 0.250219V1.86778H10.5661V0.250219C10.5661 0.112027 10.4541 0 10.3159 0C10.1777 0 10.0657 0.112027 10.0657 0.250219V1.86778H8.75014V0.250219C8.75014 0.112027 8.63811 0 8.49992 0C8.36173 0 8.2497 0.112027 8.2497 0.250219V1.86778H6.93416V0.250219C6.93416 0.112027 6.82214 0 6.68394 0C6.54575 0 6.43373 0.112027 6.43373 0.250219V1.86778H5.11815V0.250219C5.11815 0.112027 5.00612 0 4.86793 0C4.72974 0 4.61771 0.112027 4.61771 0.250219V1.86778H4.03965C3.90119 1.86778 3.78943 1.97987 3.78943 2.11799C3.78943 2.25612 3.90119 2.36821 4.03965 2.36821C5.35041 2.36821 12.8987 2.36821 13.9478 2.36821C14.2964 2.36821 14.5796 2.6518 14.5796 3.0001V13.8961C14.5796 14.0706 14.5103 14.2331 14.3838 14.3535C14.2837 14.4489 14.2797 14.6074 14.3751 14.7072C14.4245 14.7589 14.4903 14.7849 14.5563 14.7849C14.6184 14.7849 14.6804 14.7619 14.7291 14.7158C14.9553 14.5 15.0801 14.2087 15.0801 13.8961V12.3822H16.7497C16.8879 12.3822 17 12.2702 17 12.132C17 11.9938 16.8879 11.8818 16.7497 11.8818H15.0801V10.5662H16.7497C16.8879 10.5662 17 10.4542 17 10.316C17 10.1778 16.8879 10.0658 16.7497 10.0658H15.0801V8.75022H16.7497C16.8879 8.75022 17 8.63819 17 8.5C17 8.36181 16.8879 8.24978 16.7497 8.24978H15.0801V6.93424H16.7497Z" fill="#2F455C" fill-opacity="0.45"/>
</g>
<defs>
<clipPath id="clip0">
<rect width="17" height="17" fill="white"/>
</clipPath>
</defs>
</svg>
