<svg width="20" height="20" viewBox="0 0 20 20" fill="none" xmlns="http://www.w3.org/2000/svg">
<path d="M18.8705 2.68859L18.0159 1.93603L18.8705 1.18362C19.0034 1.06643 19.0489 0.883787 18.9865 0.718077C18.9238 0.552215 18.7689 0.445098 18.5917 0.445098H15.0551V0.293121C15.0551 0.131225 14.9238 0 14.7619 0C14.6 0 14.4688 0.131225 14.4688 0.293121V4.24636L12.0614 5.55358C12.0482 5.44768 12.0164 5.34362 11.9662 5.24566L11.627 4.58343C11.3942 4.12872 10.8348 3.94851 10.3804 4.18121L10.1181 4.31548C9.89775 4.4284 9.73463 4.62005 9.65864 4.85564C9.58265 5.09109 9.60295 5.34209 9.71586 5.56228L10.0551 6.22466C10.1343 6.37923 10.2513 6.50161 10.3889 6.58736C10.2089 6.82982 10.1234 7.12798 10.0355 7.43773L9.97236 7.66142C9.92827 7.81722 10.0189 7.97926 10.1747 8.02321C10.2012 8.03084 10.2281 8.03435 10.2545 8.03435C10.3824 8.03435 10.4999 7.95012 10.5365 7.82088L10.5997 7.59764C10.7281 7.14461 10.807 6.90199 11.0582 6.76558L11.5085 6.52098L11.564 6.4926C11.5825 6.48314 11.5997 6.47246 11.6173 6.46193L14.8265 4.71923C14.8062 5.12038 14.5903 5.49941 14.2347 5.71532L12.1478 6.98332C12.1454 6.9847 12.1429 6.98607 12.1406 6.9876L11.4911 7.38219C11.3528 7.46626 11.3087 7.64662 11.3928 7.78502C11.472 7.91548 11.6368 7.96187 11.7712 7.89641L11.2784 9.38627L10.9181 9.53398L9.93849 9.93544L10.2208 8.93751C10.2647 8.78172 10.1742 8.61967 10.0184 8.57558C9.8625 8.53133 9.70061 8.62212 9.65651 8.77791L9.21049 10.3552C9.2047 10.3755 9.20088 10.3978 9.19997 10.419L9.08324 12.5631C9.07973 12.6449 9.09712 12.7995 9.05928 12.8793L7.7629 15.6067H6.82082C6.26891 15.6067 5.82 16.0556 5.82 16.6073V17.4534C5.69366 17.3956 5.55343 17.3632 5.40557 17.3632H3.01315C2.46139 17.3632 2.01248 17.812 2.01248 18.3639V19.4137H1.30875C1.14685 19.4137 1.01562 19.5449 1.01562 19.7068C1.01562 19.8687 1.14685 20 1.30875 20H18.5914C18.7533 20 18.8845 19.8687 18.8845 19.7068C18.8845 19.5449 18.7533 19.4137 18.5914 19.4137H17.8291V11.8583C17.8291 11.3066 17.3802 10.8577 16.8284 10.8577H15.0551V5.74401C15.3801 5.30349 15.5005 4.7261 15.3496 4.17739C15.3259 4.09118 15.2641 4.02038 15.1817 3.98544C15.1413 3.96819 15.0979 3.96056 15.0551 3.96224V3.42712H18.5916C18.7689 3.42712 18.9238 3.32 18.9863 3.15429C19.0489 2.98858 19.0034 2.80578 18.8705 2.68859ZM10.2167 5.0357C10.2446 4.94918 10.3044 4.87868 10.3853 4.83733L10.6476 4.70305C10.697 4.67773 10.7498 4.66567 10.802 4.66567C10.9256 4.66567 11.0451 4.73327 11.1052 4.85061L11.4445 5.51299C11.5237 5.66771 11.4725 5.85524 11.3316 5.95L11.2361 6.00173L11.0345 6.10503C10.8677 6.19048 10.6624 6.12426 10.5769 5.95732L10.2376 5.29509C10.1962 5.21422 10.1887 5.12206 10.2167 5.0357ZM9.62767 15.6968C9.52803 15.6514 9.41969 15.6216 9.30586 15.6111L9.62767 15.1837V15.6968ZM11.0194 13.3349C11.1604 13.166 11.1993 12.9687 11.2308 12.8097C11.2387 12.7719 11.3833 11.9818 11.3833 11.9818C11.3833 11.9818 11.5202 12.0671 11.5346 12.0732C11.5445 12.0776 11.5515 12.0874 11.5526 12.0988L11.712 13.7198H10.7297L11.0194 13.3349ZM12.7528 11.717L12.5053 13.7184H12.301L12.1361 12.0415C12.115 11.8266 11.9835 11.6391 11.7907 11.5458L11.496 11.3589L11.6923 10.2705C11.6923 10.2705 12.5197 11.2533 12.5389 11.2784C12.7101 11.501 12.7687 11.5901 12.7528 11.717ZM9.58662 13.1357C9.64583 12.9574 9.67329 12.776 9.66871 12.5915L9.77522 10.636L11.131 10.0804L10.8845 11.4454C10.8838 11.4491 10.883 11.4529 10.8825 11.4566L10.6787 12.5853C10.6521 12.7022 10.6289 12.8795 10.556 12.9757L8.57527 15.6067H8.412L9.58662 13.1357ZM2.59872 18.3638C2.59872 18.1353 2.78457 17.9495 3.01315 17.9495H5.40557C5.63415 17.9495 5.82015 18.1353 5.82015 18.3638V19.4137H2.59872V18.3638ZM6.40624 18.3638V16.6073C6.40624 16.3788 6.59224 16.1929 6.82082 16.1929H9.21324C9.44182 16.1929 9.62767 16.3788 9.62767 16.6073V19.4137H6.40639V18.3638H6.40624ZM17.2429 11.8583V19.4137H14.0216V17.6562C14.0216 17.4943 13.8904 17.3631 13.7285 17.3631C13.5664 17.3631 13.4352 17.4943 13.4352 17.6562V19.4137H10.2139V14.7203C10.2139 14.4919 10.3998 14.306 10.6283 14.306H13.0208C13.2493 14.306 13.4352 14.4919 13.4352 14.7203V16.1897C13.4352 16.3516 13.5664 16.4828 13.7283 16.4828C13.8904 16.4828 14.0214 16.3516 14.0214 16.1897V11.8583C14.0214 11.6298 14.2074 11.4439 14.436 11.4439H14.7589C14.7598 11.4439 14.7609 11.4441 14.7619 11.4441C14.7629 11.4441 14.7639 11.4439 14.7648 11.4439H16.8283C17.0569 11.4439 17.2429 11.6299 17.2429 11.8583ZM14.436 10.8577C13.8843 10.8577 13.4353 11.3066 13.4353 11.8583V13.8099C13.3304 13.762 13.2159 13.7317 13.0955 13.7228L13.3346 11.7892C13.3816 11.4123 13.1894 11.1625 13.0035 10.9208C12.9838 10.8952 11.8445 9.54237 11.8445 9.54237L12.5435 7.42903L14.4688 6.2593V10.8577H14.436ZM15.0551 2.84072V1.03149H18.1561L17.4882 1.61956C17.3973 1.69967 17.3451 1.81503 17.3451 1.93618C17.3451 2.05734 17.3973 2.17269 17.4882 2.2528L18.1561 2.84088H15.0551V2.84072Z" fill="#2F455C" fill-opacity="0.45"/>
</svg>
