<svg width="16" height="16" viewBox="0 0 16 16" fill="none" xmlns="http://www.w3.org/2000/svg">
<path fill-rule="evenodd" clip-rule="evenodd" d="M14.7372 6.45862H4.07556L14.3162 3.49207C14.3957 3.46899 14.4629 3.41516 14.5029 3.34265C14.543 3.27002 14.5525 3.18457 14.5294 3.10498L13.9935 1.255C13.7794 0.516113 13.0914 0 12.3204 0C12.158 0 11.9961 0.0230713 11.8391 0.0684814L2.22424 2.85376C1.77954 2.98254 1.41101 3.2782 1.18627 3.68604C0.961664 4.09387 0.90893 4.56348 1.03771 5.00806L1.56127 6.81543V14.2609C1.56127 15.2198 2.34143 16 3.30029 16H7.05542C7.22802 16 7.36792 15.8601 7.36792 15.6875C7.36792 15.5149 7.22802 15.375 7.05542 15.375H3.30041C2.68603 15.375 2.18627 14.8752 2.18627 14.2609V10.0082H3.78723H3.78796H3.78857H6.23584H6.23657H6.2373H8.68457H8.6853H8.68603H11.1333H11.134H11.1346H14.4247V14.2609C14.4247 14.8752 13.9249 15.375 13.3105 15.375H9.55542C9.38293 15.375 9.24292 15.5149 9.24292 15.6875C9.24292 15.8601 9.38293 16 9.55542 16H13.3105C14.2695 16 15.0497 15.2198 15.0497 14.2609V6.77112C15.0497 6.59851 14.9098 6.45862 14.7372 6.45862ZM9.2268 9.38318L10.5546 7.08362H12.2815L10.9539 9.38318H9.2268ZM6.77807 9.38318L8.10583 7.08362H9.83276L8.50512 9.38318H6.77807ZM4.32946 9.38318L5.6571 7.08362H7.38415L6.05639 9.38318H4.32946ZM5.49133 5.33765L3.26794 3.20215L4.93383 2.7196C4.94555 2.73669 4.95922 2.75281 4.97485 2.76782L7.19824 4.90332L5.53234 5.38586C5.52063 5.36877 5.50683 5.35254 5.49133 5.33765ZM9.67883 1.40515L11.9022 3.54065L10.2363 4.02319C10.2246 4.0061 10.2109 3.98987 10.1953 3.97498L7.97192 1.83948L9.63781 1.35693C9.64953 1.37402 9.6632 1.39014 9.67883 1.40515ZM7.32678 2.08655L9.55017 4.22192L7.88427 4.70459C7.87255 4.6875 7.85888 4.67126 7.84326 4.65637L5.61987 2.52087L7.28576 2.03833C7.2976 2.0553 7.31128 2.07153 7.32678 2.08655ZM12.0131 0.668823C12.1134 0.639771 12.2168 0.625 12.3204 0.625C12.8149 0.625 13.256 0.955566 13.3932 1.42896L13.8422 2.97864L12.5884 3.3418C12.5765 3.32471 12.5629 3.30859 12.5472 3.29358L10.324 1.1582L12.0131 0.668823ZM1.73376 3.98755C1.8778 3.72595 2.11376 3.5365 2.39819 3.4541L2.58178 3.40088C2.59362 3.41797 2.60729 3.4342 2.6228 3.4491L4.84619 5.58459L2.08703 6.38391L1.63806 4.83423C1.55566 4.54993 1.58972 4.24927 1.73376 3.98755ZM2.18627 7.08362H4.93542L3.60778 9.38318H2.18627V7.08362ZM11.6755 9.38318L13.0032 7.08362H14.4247V9.38318H11.6755Z" fill="#2F455C" fill-opacity="0.45"/>
<path fill-rule="evenodd" clip-rule="evenodd" d="M10.4663 12.6598C10.4663 12.5481 10.4067 12.4449 10.3101 12.3892L7.56458 10.8041C7.4679 10.7483 7.34875 10.7483 7.25208 10.8041C7.1554 10.8599 7.09583 10.963 7.09583 11.0747V14.2449C7.09583 14.3564 7.1554 14.4596 7.25208 14.5154C7.30042 14.5433 7.35437 14.5574 7.40833 14.5574C7.46228 14.5574 7.51624 14.5433 7.56458 14.5154L10.3101 12.9304C10.4067 12.8746 10.4663 12.7715 10.4663 12.6598ZM7.72083 13.7036V11.616L9.52881 12.6598L7.72083 13.7036Z" fill="#2F455C" fill-opacity="0.45"/>
<path fill-rule="evenodd" clip-rule="evenodd" d="M8.3053 15.375C8.13318 15.375 7.9928 15.5154 7.9928 15.6875C7.9928 15.8596 8.13318 16 8.3053 16C8.47754 16 8.6178 15.8596 8.6178 15.6875C8.6178 15.5154 8.47754 15.375 8.3053 15.375Z" fill="#2F455C" fill-opacity="0.45"/>
</svg>
