<svg width="30" height="30" viewBox="0 0 30 30" fill="none" xmlns="http://www.w3.org/2000/svg">
<g opacity="0.9" clip-path="url(#clip0)">
<path d="M25.8378 4.61676C23.0063 1.66128 19.0886 -0.00665112 14.9956 0.000879885C6.72422 -0.009538 0.0103916 6.68734 -2.62724e-05 14.9588C-0.00517246 19.0488 1.66257 22.9629 4.61585 25.7924C4.62445 25.8009 4.62765 25.8138 4.63619 25.8213C4.72292 25.9048 4.81718 25.9756 4.90504 26.0559C5.14603 26.2701 5.38703 26.4918 5.64088 26.6985C5.77688 26.8057 5.91828 26.9127 6.05754 27.0113C6.29746 27.1901 6.53739 27.369 6.78798 27.534C6.95831 27.6411 7.13397 27.7482 7.3085 27.8553C7.53983 27.9946 7.77015 28.1348 8.00901 28.2623C8.21147 28.3694 8.41813 28.4615 8.62379 28.5589C8.84871 28.6661 9.07044 28.7731 9.3007 28.8695C9.53096 28.9659 9.76235 29.0409 9.99581 29.1245C10.2293 29.208 10.4307 29.2851 10.6545 29.3537C10.9073 29.4297 11.1665 29.4886 11.4236 29.5518C11.6378 29.6043 11.8456 29.6642 12.0662 29.7071C12.3618 29.766 12.6617 29.8035 12.9616 29.8442C13.147 29.87 13.328 29.9064 13.5154 29.9246C14.0059 29.9728 14.5007 29.9996 14.9998 29.9996C15.499 29.9996 15.9938 29.9728 16.4843 29.9246C16.6718 29.9064 16.8528 29.87 17.0381 29.8442C17.338 29.8035 17.6378 29.766 17.9335 29.7071C18.1477 29.6642 18.3619 29.6 18.5761 29.5518C18.8332 29.4886 19.0924 29.4297 19.3452 29.3537C19.569 29.2851 19.7854 29.2016 20.0039 29.1245C20.2224 29.0473 20.4709 28.9638 20.699 28.8695C20.9271 28.7753 21.151 28.6649 21.3759 28.5589C21.5816 28.4615 21.7883 28.3694 21.9907 28.2623C22.2296 28.1348 22.4598 27.9945 22.6912 27.8553C22.8658 27.7482 23.0415 27.6507 23.2117 27.534C23.4624 27.369 23.7023 27.1902 23.9422 27.0113C24.0814 26.9041 24.2228 26.8077 24.3588 26.6985C24.6127 26.495 24.8537 26.2787 25.0947 26.0559C25.1825 25.9756 25.2767 25.9049 25.3635 25.8213C25.372 25.8138 25.3753 25.801 25.3838 25.7924C31.3568 20.0702 31.56 10.5895 25.8378 4.61676ZM23.4304 24.6709C23.2355 24.8423 23.0341 25.0051 22.8307 25.1626C22.7107 25.2547 22.5907 25.3457 22.4675 25.4336C22.2737 25.5739 22.0766 25.7067 21.8763 25.8342C21.7306 25.9274 21.5818 26.0173 21.4318 26.1052C21.2432 26.2123 21.0515 26.3194 20.8577 26.4265C20.6863 26.5143 20.5117 26.5968 20.3361 26.6782C20.1605 26.7596 19.9665 26.8463 19.777 26.9224C19.5874 26.9985 19.386 27.0702 19.1878 27.1366C19.0068 27.1987 18.8258 27.263 18.6427 27.3176C18.4285 27.3819 18.2046 27.4343 17.9829 27.4879C17.8094 27.5286 17.638 27.5746 17.4624 27.609C17.2085 27.6582 16.9493 27.6925 16.6891 27.7278C16.5413 27.7471 16.3945 27.7739 16.2456 27.7889C15.8343 27.8285 15.4176 27.8521 14.9967 27.8521C14.5758 27.8521 14.1591 27.8286 13.7478 27.7889C13.599 27.7739 13.4522 27.7471 13.3044 27.7278C13.0441 27.6925 12.7849 27.6582 12.5311 27.609C12.3554 27.5747 12.184 27.5286 12.0105 27.4879C11.7888 27.4344 11.5682 27.3808 11.3508 27.3176C11.1676 27.263 10.9866 27.1987 10.8056 27.1366C10.6075 27.0681 10.4093 26.9984 10.2165 26.9224C10.0237 26.8463 9.84161 26.7628 9.65736 26.6782C9.4731 26.5936 9.3071 26.5143 9.13577 26.4265C8.94191 26.3258 8.75018 26.2198 8.56166 26.1052C8.41173 26.0174 8.2628 25.9274 8.11714 25.8342C7.91688 25.7067 7.71975 25.5739 7.52589 25.4336C7.4027 25.3458 7.28277 25.2547 7.16277 25.1626C6.95925 25.0051 6.75792 24.8413 6.56299 24.6709C6.51586 24.6356 6.473 24.5906 6.42699 24.5499C6.47488 20.9063 8.81558 17.6891 12.2676 16.5221C13.9936 17.3432 15.9976 17.3432 17.7237 16.5221C21.1756 17.6891 23.5163 20.9063 23.5643 24.5499C23.5193 24.5906 23.4764 24.6313 23.4304 24.6709ZM11.2607 8.58861C12.4204 6.52612 15.0325 5.79429 17.095 6.954C19.1575 8.11372 19.8893 10.7258 18.7296 12.7883C18.3448 13.4726 17.7794 14.038 17.095 14.4229C17.0896 14.4229 17.0832 14.4229 17.0768 14.4293C16.7927 14.5874 16.4926 14.7145 16.1813 14.8085C16.1257 14.8245 16.0742 14.8459 16.0153 14.8599C15.9082 14.8877 15.7958 14.907 15.6854 14.9263C15.4777 14.9626 15.2675 14.9837 15.0567 14.9895H14.9346C14.7238 14.9837 14.5136 14.9626 14.3059 14.9263C14.1987 14.907 14.0852 14.8877 13.976 14.8599C13.9192 14.8459 13.8689 14.8245 13.81 14.8085C13.4988 14.7145 13.1986 14.5874 12.9146 14.4293L12.8953 14.4229C10.8328 13.2632 10.101 10.6511 11.2607 8.58861ZM25.4644 22.426C24.777 19.2201 22.666 16.5023 19.7298 15.0431C22.13 12.4285 21.9562 8.36324 19.3416 5.96305C16.727 3.56286 12.6617 3.7367 10.2615 6.35127C8.00512 8.80927 8.00512 12.5852 10.2615 15.0431C7.32538 16.5023 5.21432 19.2201 4.52699 22.426C0.419827 16.6408 1.78018 8.62137 7.56543 4.51421C13.3507 0.407052 21.3701 1.7674 25.4772 7.55266C27.0212 9.72742 27.8499 12.3288 27.8486 14.9959C27.8486 17.6607 27.0149 20.2587 25.4644 22.426Z" fill="#C3CEDA" fill-opacity="0.99"/>
</g>
<defs>
<clipPath id="clip0">
<rect width="30" height="30" fill="white"/>
</clipPath>
</defs>
</svg>
