<svg width="28" height="27" viewBox="0 0 28 27" fill="none" xmlns="http://www.w3.org/2000/svg">
<g clip-path="url(#clip0)">
<path d="M24.0226 7.94626H27.1579V9.46817H24.0226V7.94626Z" fill="#2F455C"/>
<path d="M0.842133 7.94626H3.97741V9.46817H0.842133V7.94626Z" fill="#2F455C"/>
<path d="M25.7364 14.5159L24.9655 15.8339L22.2948 14.3119L23.0657 12.9939L25.7364 14.5159Z" fill="#2F455C"/>
<path d="M4.9347 4.4201L2.26401 2.89819L3.03498 1.58018L5.70567 3.1021L4.9347 4.4201Z" fill="#2F455C"/>
<path d="M22.2938 3.1019L24.9645 1.57999L25.7354 2.89799L23.0648 4.41991L22.2938 3.1019Z" fill="#2F455C"/>
<path d="M3.03479 15.8345L2.26382 14.5165L4.93431 12.9945L5.70528 14.3125L3.03479 15.8345Z" fill="#2F455C"/>
<path d="M12.1802 0.52436C8.85198 1.21021 6.22706 3.90527 5.64803 7.2303C4.98167 11.0585 6.9641 14.546 10.1452 16.1551V18.7011H8.60322V20.2231H10.1452V21.745H8.60322V23.2669H11.6871V26.3107H16.3129V23.2669H19.3968V21.745H17.8549V20.2231H19.3968V18.7011H17.8549V16.1555C20.6812 14.7305 22.4807 11.8597 22.4807 8.70723C22.4807 3.43185 17.588 -0.590126 12.1802 0.52436ZM14.771 24.7888H13.229V23.2669H14.771V24.7888ZM16.3129 21.745H11.6871V20.2231H16.3129V21.745ZM16.7747 14.9772L16.3129 15.1768V18.7011H11.6871V15.1768L11.2253 14.9774C8.28941 13.7091 6.62098 10.6294 7.16769 7.48811C7.64031 4.77344 9.78136 2.5736 12.4954 2.01417C16.9341 1.09924 20.9387 4.38781 20.9387 8.70723C20.9387 11.4235 19.3043 13.8845 16.7747 14.9772Z" fill="#2F455C"/>
<path d="M16.1441 5.37783L14.9399 4.42703L10.8539 9.46818H13.9378L11.856 12.0366L13.0602 12.9874L17.1462 7.94626H14.0623L16.1441 5.37783Z" fill="#2F455C"/>
</g>
<defs>
<clipPath id="clip0">
<rect width="26.3158" height="25.974" fill="white" transform="translate(0.842133 0.337677)"/>
</clipPath>
</defs>
</svg>
