<svg width="18" height="18" viewBox="0 0 18 18" fill="none" xmlns="http://www.w3.org/2000/svg">
<path d="M17.1792 2.52042C16.9354 1.75372 16.605 1.20474 16.591 1.18167C16.5368 1.09237 16.4252 1.04592 16.3242 1.0691C16.298 1.07507 15.6741 1.22071 14.9543 1.58017C13.9827 2.06528 13.3039 2.71293 12.9912 3.45275C12.7309 4.06888 12.6935 4.8221 12.8782 5.65421C12.4849 5.21493 12.0424 4.83064 11.5601 4.50713C11.4128 4.21616 11.0234 3.49982 10.4145 2.75114C10.214 2.50467 9.82828 2.81397 10.0309 3.06291C10.4411 3.56749 10.7499 4.06373 10.943 4.40465L8.69119 3.96568L6.55174 1.04747C6.75949 1.05035 6.96795 1.07043 7.17539 1.11112C7.83302 1.23986 8.48263 1.57481 9.10648 2.10648C9.35089 2.31484 9.66832 1.93561 9.42711 1.73013C8.73795 1.14284 8.01234 0.771228 7.27035 0.6259C6.1377 0.404251 4.81666 0.695217 3.44968 1.46769C2.43084 2.04345 1.74951 2.67585 1.72109 2.70242C1.62993 2.7876 1.61541 2.9423 1.69173 3.04179C1.79164 3.24676 2.17026 3.98617 2.80049 4.78224C3.172 5.25159 3.5638 5.65328 3.9691 5.98339C3.85395 6.07989 3.74188 6.18083 3.63343 6.28702C3.05417 6.85361 2.61067 7.52195 2.3195 8.25261C2.06211 8.8982 1.92368 9.5927 1.91596 10.3085C1.90318 11.4791 2.24235 12.608 2.897 13.5735C3.53651 14.5166 4.43052 15.2406 5.48233 15.6674C5.77669 15.7865 5.96281 15.3287 5.66824 15.2092C5.28715 15.0546 4.92913 14.8566 4.59892 14.621C4.64115 14.3868 4.7391 13.5439 4.17921 12.6713C4.10083 12.5492 4.33515 12.0699 4.47502 11.7836C4.61942 11.4885 4.76846 11.1834 4.83808 10.8961C4.91203 10.591 4.82881 10.3348 4.59758 10.1551C4.42784 10.0231 4.20568 9.95484 4.00988 9.89459C3.88268 9.85545 3.73849 9.81116 3.68699 9.76821C3.5809 9.67933 3.40766 9.35087 3.26841 9.08709C3.11391 8.79448 2.96683 8.51598 2.81666 8.34449C3.1546 7.54193 3.69739 6.83177 4.37717 6.28846C4.99814 6.71147 5.70686 7.00336 6.46018 7.06248C5.58656 7.73938 5.30394 8.60383 5.70789 9.43419C6.17962 10.4038 7.15057 10.2489 8.00719 10.1124C8.1554 10.0887 8.30877 10.0643 8.45564 10.046C8.51074 10.0391 8.52733 10.0541 8.53845 10.0639C8.72601 10.2308 8.72044 11.0277 8.71643 11.6096C8.71097 12.4145 8.70582 13.1748 9.00564 13.5652C9.15859 13.7642 9.37396 13.8659 9.6264 13.8659C9.77771 13.8659 9.94209 13.8295 10.1145 13.7555C10.8601 13.4362 11.6352 12.4753 11.5169 11.715C11.4136 11.0502 11.3452 10.611 11.5064 10.257C11.6554 9.9294 12.0157 9.62608 12.7253 9.23901C12.8102 9.62165 12.8531 10.0197 12.8487 10.4281C12.8335 11.8221 12.2763 13.1267 11.2798 14.1016C10.1661 15.1911 8.60087 15.7292 7.05251 15.5585C6.73703 15.5243 6.68255 16.0152 6.99844 16.05C8.69325 16.2366 10.4068 15.6475 11.6255 14.4551C12.7165 13.3877 13.3265 11.9596 13.343 10.4334C13.3651 8.40979 12.3268 6.61702 10.7462 5.58427C11.0728 5.3514 11.3161 5.15004 11.451 5.03314C12.0273 5.44657 12.5384 5.95588 12.9637 6.54925C13.9846 7.97401 14.3895 9.71084 14.104 11.4402C13.5143 15.0099 10.1306 17.4348 6.56019 16.8449C4.83077 16.5593 3.3162 15.6175 2.29529 14.1927C1.27429 12.7681 0.869405 11.0311 1.15502 9.30184C1.20631 8.99069 0.718824 8.90901 0.667325 9.2213C0.360085 11.0809 0.795659 12.9488 1.8933 14.4808C2.99114 16.0127 4.62004 17.0256 6.47964 17.3328C6.86856 17.397 7.25789 17.4287 7.64454 17.4287C9.10606 17.4287 10.5278 16.9749 11.7394 16.1067C13.2717 15.0089 14.2846 13.3803 14.5917 11.5207C14.8167 10.1581 14.6426 8.79098 14.1016 7.55481C14.3513 7.48117 14.7761 7.33821 15.2415 7.10584C16.213 6.62073 16.8918 5.97309 17.2044 5.23326C17.5173 4.49323 17.5086 3.55513 17.1792 2.52042ZM2.83108 9.31781C3.01504 9.66655 3.189 9.99614 3.36976 10.1473C3.49778 10.2544 3.67597 10.3092 3.86455 10.3671C4.34771 10.5157 4.40385 10.5886 4.3575 10.7796C4.30064 11.0146 4.16345 11.2951 4.03089 11.5663C3.77556 12.0887 3.53445 12.5819 3.763 12.9382C4.08713 13.4433 4.14265 13.9406 4.13708 14.2499C2.66464 12.9222 2.0651 10.8251 2.61355 8.919C2.68627 9.04363 2.76269 9.18844 2.83108 9.31781ZM14.7916 4.45975L14.0891 2.75721C14.4309 2.43751 14.8275 2.19691 15.1654 2.02748C15.4531 1.88308 15.7269 1.77514 15.9465 1.69861L14.7916 4.45975ZM16.4023 1.89029C16.5004 2.10123 16.6142 2.37324 16.7115 2.68069C16.8181 3.01811 16.9159 3.43627 16.9354 3.87246L15.289 4.55173L16.4023 1.89029ZM13.4466 3.64525C13.5195 3.47284 13.6137 3.31298 13.7226 3.16539L14.5224 5.10328L13.8047 6.81941C13.7038 6.60549 13.5851 6.32451 13.4844 6.00532C13.2822 5.36623 13.1116 4.43781 13.4466 3.64525ZM15.0303 6.65853C14.7534 6.79757 14.4891 6.90284 14.2738 6.97875L15.0186 5.19824L16.9144 4.41598C16.8869 4.62836 16.8344 4.83888 16.7491 5.04076C16.4142 5.83332 15.6296 6.35809 15.0303 6.65853ZM6.11627 6.51784C6.02893 6.50074 5.94272 6.47983 5.85775 6.45604L8.59376 4.45048L10.8466 4.88956C10.0259 5.53617 8.02872 6.89254 6.11627 6.51784ZM3.61582 4.97113C3.03069 4.34048 2.60181 3.66616 2.35555 3.2344L5.22247 3.79336L3.61582 4.97113ZM4.12215 1.67286L5.32165 3.30897L2.43619 2.7465C2.79946 2.45966 3.39911 2.02903 4.12215 1.67286ZM6.03686 3.44843L4.58265 1.46481C5.01802 1.2859 5.48531 1.14511 5.96435 1.08248L7.97609 3.82632L6.03686 3.44843ZM5.88298 3.92211L7.93334 4.32174L5.30188 6.25056C4.80564 6.02139 4.35904 5.6919 3.96827 5.32565L5.88298 3.92211ZM12.591 8.74957C11.6997 9.22439 11.2633 9.59734 11.0563 10.0523C10.8339 10.5408 10.9154 11.0651 11.0282 11.7909C11.0948 12.2188 10.5862 13.0157 9.91984 13.3011C9.67327 13.4067 9.49766 13.3942 9.39765 13.2639C9.20123 13.0083 9.20659 12.2346 9.21081 11.613C9.21668 10.753 9.22183 10.0103 8.86701 9.69457C8.7394 9.58107 8.57615 9.53307 8.39477 9.55532C8.23935 9.57468 8.08166 9.59981 7.92933 9.62412C7.02058 9.76893 6.44875 9.82692 6.15253 9.2179C5.67256 8.2315 6.64413 7.50084 7.08413 7.23253C7.17374 7.17794 7.25686 7.11357 7.33411 7.04188C8.39755 6.91479 9.40239 6.45851 10.2978 5.88698C11.3715 6.52844 12.1957 7.54358 12.591 8.74957Z" fill="#2F455C" fill-opacity="0.45"/>
</svg>
