<svg width="17" height="17" viewBox="0 0 17 17" fill="none" xmlns="http://www.w3.org/2000/svg">
<g clip-path="url(#clip0)">
<path d="M0 5.48824H3.76168V1.72656H0V5.48824ZM0.996223 2.72279H2.76559V4.49215H0.996223V2.72279Z" fill="#2F455C"/>
<path d="M4.95715 1.72656V5.48824H17V1.72656H4.95715ZM16.0038 4.49215H5.95338V2.72279H16.0038V4.49215Z" fill="#2F455C"/>
<path d="M0 10.3693H3.76168V6.60767H0V10.3693ZM0.996223 7.60376H2.76559V9.37312H0.996223V7.60376Z" fill="#2F455C"/>
<path d="M4.95715 10.3693H17V6.60767H4.95715V10.3693ZM5.95338 7.60376H16.0038V9.37312H5.95338V7.60376Z" fill="#2F455C"/>
<path d="M0 15.2505H3.76168V11.4887H0V15.2505ZM0.996223 12.4849H2.76559V14.2543H0.996223V12.4849Z" fill="#2F455C"/>
<path d="M4.95715 15.2505H17V11.4887H4.95715V15.2505ZM5.95338 12.4849H16.0038V14.2543H5.95338V12.4849Z" fill="#2F455C"/>
</g>
<defs>
<clipPath id="clip0">
<rect width="17" height="17" fill="white"/>
</clipPath>
</defs>
</svg>
