<svg width="25" height="25" viewBox="0 0 25 25" fill="none" xmlns="http://www.w3.org/2000/svg">
<g clip-path="url(#clip0)">
<path d="M23.7867 5.62249C23.251 4.98677 22.5313 4.45825 21.6448 4.04797C21.4462 3.54043 21.1725 3.07809 20.8231 2.66343C19.4262 1.00575 16.7748 0.0928938 13.3568 0.0928938C12.3335 0.0928938 8.28783 0.0501691 6.01161 0.000387282C5.08826 -0.0190677 4.27459 0.618941 4.07298 1.51864L0.0473347 19.6284C-0.0825555 20.2072 0.0557271 20.805 0.426706 21.2683C0.797494 21.7314 1.35062 21.9971 1.94381 21.9971H3.14239L3.01116 22.5874C2.88127 23.1663 3.01955 23.7641 3.39053 24.2274C3.76132 24.6905 4.31445 24.9562 4.90782 24.9562H9.78071C10.7044 24.9562 11.5059 24.2987 11.6867 23.3931L12.5502 19.0695L17.1118 19.017L17.1494 19.0129C17.4524 18.9779 19.0508 18.7453 20.7621 17.5865C21.7381 16.9258 22.5668 16.0847 23.2254 15.0864C24.0284 13.8697 24.579 12.4157 24.8617 10.7653C25.2272 8.63286 24.8655 6.90251 23.7867 5.62249V5.62249ZM1.57111 20.352C1.51752 20.2851 1.43417 20.1437 1.47804 19.9476L5.50368 1.8385C5.55346 1.61782 5.75373 1.46027 5.97975 1.46619C8.26437 1.51597 12.3284 1.55888 13.3568 1.55888C16.2918 1.55888 18.6047 2.3058 19.702 3.60814C20.4893 4.54255 20.742 5.87178 20.4531 7.55845C20.0026 10.1864 18.833 12.1563 16.9762 13.4134C15.5991 14.3459 14.2807 14.5615 14.0511 14.593L9.51922 14.645C8.82818 14.645 8.30309 15.0425 8.18198 15.6563L7.28533 20.147C7.24089 20.3696 7.04386 20.5311 6.81689 20.5311H1.94381C1.7443 20.5311 1.62452 20.4188 1.57111 20.352V20.352ZM23.4167 10.5175C22.9664 13.1455 21.7968 15.1154 19.94 16.3725C18.5629 17.305 17.2445 17.5205 17.0149 17.552L12.483 17.6041C11.792 17.6041 11.2669 18.0016 11.1458 18.6154L10.2492 23.106C10.2047 23.3286 10.0077 23.4902 9.78071 23.4902H4.90782C4.70813 23.4902 4.58854 23.378 4.53494 23.3111C4.48134 23.2441 4.39799 23.1028 4.44186 22.9067L4.64423 21.9971H6.81708C7.74062 21.9971 8.54227 21.3396 8.72309 20.434L9.58635 16.1102L14.148 16.058L14.1855 16.0538C14.4886 16.0189 16.087 15.7862 17.7982 14.6275C18.7742 13.9666 19.603 13.1254 20.2618 12.1273C21.0646 10.9104 21.6152 9.45665 21.8979 7.80603C22.0093 7.156 22.0528 6.54355 22.0293 5.96963C22.2723 6.1535 22.4852 6.35282 22.6658 6.56701C23.4531 7.50161 23.7059 8.83085 23.4167 10.5175V10.5175Z" fill="#2F455C"/>
</g>
<defs>
<clipPath id="clip0">
<rect width="25" height="25" fill="white"/>
</clipPath>
</defs>
</svg>
