<svg width="23" height="23" viewBox="0 0 23 23" fill="none" xmlns="http://www.w3.org/2000/svg">
<g opacity="0.8" clip-path="url(#clip0)">
<path d="M22.719 21.3647L16.1784 14.8241C17.4453 13.2592 18.2081 11.2707 18.2081 9.10485C18.2081 4.08515 14.1237 0.000762939 9.10405 0.000762939C4.08435 0.000762939 0 4.08511 0 9.10481C0 14.1245 4.08439 18.2089 9.10409 18.2089C11.2699 18.2089 13.2584 17.4461 14.8234 16.1792L21.3639 22.7197C21.5508 22.9066 21.7961 23.0005 22.0415 23.0005C22.2868 23.0005 22.5321 22.9066 22.719 22.7197C23.0937 22.345 23.0937 21.7394 22.719 21.3647ZM9.10409 16.2922C5.14045 16.2922 1.91666 13.0685 1.91666 9.10481C1.91666 5.14117 5.14045 1.91738 9.10409 1.91738C13.0677 1.91738 16.2915 5.14117 16.2915 9.10481C16.2915 13.0685 13.0677 16.2922 9.10409 16.2922Z" fill="#C4C4C4" fill-opacity="0.99"/>
</g>
<defs>
<clipPath id="clip0">
<rect width="23" height="23" fill="white"/>
</clipPath>
</defs>
</svg>
