<svg width="15" height="15" viewBox="0 0 15 15" fill="none" xmlns="http://www.w3.org/2000/svg">
<path d="M8.81836 1.31836C8.81836 0.591416 8.22694 0 7.5 0C6.77306 0 6.18164 0.591416 6.18164 1.31836C6.18164 2.0453 6.77306 2.63672 7.5 2.63672C8.22694 2.63672 8.81836 2.0453 8.81836 1.31836ZM7.5 1.75781C7.25769 1.75781 7.06055 1.56067 7.06055 1.31836C7.06055 1.07604 7.25769 0.878906 7.5 0.878906C7.74231 0.878906 7.93945 1.07604 7.93945 1.31836C7.93945 1.56067 7.74231 1.75781 7.5 1.75781Z" fill="#2F455C" fill-opacity="0.45"/>
<path d="M9.69727 4.83398C9.69727 3.62241 8.71157 2.63672 7.5 2.63672C6.28843 2.63672 5.30273 3.62241 5.30273 4.83398V5.27344H9.69727V4.83398ZM6.25693 4.39453C6.43828 3.88298 6.92704 3.51562 7.5 3.51562C8.07296 3.51562 8.56169 3.88298 8.74307 4.39453H6.25693Z" fill="#2F455C" fill-opacity="0.45"/>
<path d="M3.51562 10.1367C3.51562 9.40978 2.92421 8.81836 2.19727 8.81836C1.47032 8.81836 0.878906 9.40978 0.878906 10.1367C0.878906 10.8637 1.47032 11.4551 2.19727 11.4551C2.92421 11.4551 3.51562 10.8637 3.51562 10.1367ZM2.19727 10.5762C1.95495 10.5762 1.75781 10.379 1.75781 10.1367C1.75781 9.8944 1.95495 9.69727 2.19727 9.69727C2.43958 9.69727 2.63672 9.8944 2.63672 10.1367C2.63672 10.379 2.43958 10.5762 2.19727 10.5762Z" fill="#2F455C" fill-opacity="0.45"/>
<path d="M2.19727 11.4551C0.985693 11.4551 0 12.4408 0 13.6523V14.0918H4.39453V13.6523C4.39453 12.4408 3.40884 11.4551 2.19727 11.4551ZM0.954199 13.2129C1.13555 12.7013 1.62431 12.334 2.19727 12.334C2.77022 12.334 3.25896 12.7013 3.44033 13.2129H0.954199Z" fill="#2F455C" fill-opacity="0.45"/>
<path d="M14.1211 10.1367C14.1211 9.40978 13.5297 8.81836 12.8027 8.81836C12.0758 8.81836 11.4844 9.40978 11.4844 10.1367C11.4844 10.8637 12.0758 11.4551 12.8027 11.4551C13.5297 11.4551 14.1211 10.8637 14.1211 10.1367ZM12.8027 10.5762C12.5604 10.5762 12.3633 10.379 12.3633 10.1367C12.3633 9.8944 12.5604 9.69727 12.8027 9.69727C13.045 9.69727 13.2422 9.8944 13.2422 10.1367C13.2422 10.379 13.045 10.5762 12.8027 10.5762Z" fill="#2F455C" fill-opacity="0.45"/>
<path d="M12.8027 11.4551C11.5912 11.4551 10.6055 12.4408 10.6055 13.6523V14.0918H15V13.6523C15 12.4408 14.0143 11.4551 12.8027 11.4551ZM11.5597 13.2129C11.741 12.7013 12.2298 12.334 12.8027 12.334C13.3757 12.334 13.8644 12.7013 14.0458 13.2129H11.5597Z" fill="#2F455C" fill-opacity="0.45"/>
<path d="M8.81837 9.25781C8.81837 8.68491 8.45096 8.19644 7.93947 8.01504V6.18164H7.06056V8.01504C6.54907 8.19644 6.18166 8.68491 6.18166 9.25781C6.18166 9.37526 6.1973 9.48905 6.22625 9.59751L4.46301 10.805L4.95962 11.5302L6.72344 10.3223C6.94144 10.4817 7.20983 10.5762 7.50001 10.5762C7.7902 10.5762 8.05859 10.4817 8.27659 10.3223L10.0404 11.5302L10.537 10.805L8.77378 9.59748C8.80273 9.48905 8.81837 9.37526 8.81837 9.25781ZM7.50001 9.69727C7.2577 9.69727 7.06056 9.50013 7.06056 9.25781C7.06056 9.0155 7.2577 8.81836 7.50001 8.81836C7.74233 8.81836 7.93947 9.0155 7.93947 9.25781C7.93947 9.50013 7.74233 9.69727 7.50001 9.69727Z" fill="#2F455C" fill-opacity="0.45"/>
<path d="M4.27745 5.65459L3.69127 4.99969C2.97151 5.6439 2.42336 6.46395 2.10608 7.37124L2.93571 7.66137C3.2041 6.89394 3.66804 6.20001 4.27745 5.65459Z" fill="#2F455C" fill-opacity="0.45"/>
<path d="M12.0643 7.6614L12.8939 7.37127C12.5766 6.464 12.0285 5.64393 11.3087 4.99972L10.7225 5.65462C11.3319 6.20001 11.7959 6.89394 12.0643 7.6614Z" fill="#2F455C" fill-opacity="0.45"/>
<path d="M7.49997 14.1211C6.94693 14.1211 6.40479 14.0286 5.88861 13.8461L5.5957 14.6748C6.20622 14.8906 6.84688 15 7.49997 15C8.15306 15 8.79372 14.8906 9.40424 14.6748L9.11133 13.8461C8.59515 14.0286 8.05301 14.1211 7.49997 14.1211Z" fill="#2F455C" fill-opacity="0.45"/>
</svg>
