<svg width="17" height="18" viewBox="0 0 17 18" fill="none" xmlns="http://www.w3.org/2000/svg">
<g clip-path="url(#clip0)">
<path d="M17.0008 1.78739C17.0019 1.54294 16.91 1.30832 16.7458 1.1364L15.9276 0.270004C15.766 0.0970154 15.5457 -0.000214612 15.3159 -7.29855e-06H15.313C15.0846 0.000140783 14.8659 0.0974301 14.7059 0.270004L10.9942 4.19996H3.68429V0.9C3.68429 0.402921 3.30372 -7.29855e-06 2.83429 -7.29855e-06H2.26763C1.01638 0.00147351 0.00237511 1.07512 0.000976562 2.39997V15.6752C0.0718828 16.9899 1.10613 18.0135 2.3498 17.9998H16.1509C16.6203 17.9998 17.0008 17.5969 17.0008 17.0999V5.09996C17.0008 4.60292 16.6203 4.19996 16.1509 4.19996H15.0742L16.7459 2.42997C16.9085 2.26045 17.0003 2.02906 17.0008 1.78739ZM10.1386 7.49994C10.0786 7.50859 10.0183 7.48626 9.97651 7.43994C9.93433 7.39558 9.91349 7.33332 9.91984 7.27074L10.0272 6.25076C10.0317 6.22944 10.0374 6.20838 10.0442 6.18777L11.1603 7.36946C11.1419 7.37366 11.1251 7.38326 11.1059 7.38566L10.1386 7.49994ZM11.6229 7.01003L10.3831 5.69694L13.4714 2.42698L14.7107 3.73886L11.6229 7.01003ZM13.8709 2.00246L14.2911 1.55787L15.5298 2.86975L15.1099 3.31464L13.8709 2.00246ZM0.567639 2.39997C0.56859 1.40629 1.32915 0.600965 2.26763 0.599988H2.83429C2.99076 0.599988 3.11763 0.734297 3.11763 0.89997V12.8999C3.11763 13.0655 2.99078 13.1999 2.83429 13.1999H2.26763C1.61671 13.1996 0.997271 13.4963 0.567639 14.014V2.39997ZM16.1509 4.79995C16.3073 4.79995 16.4342 4.93426 16.4342 5.09996V17.0999C16.4342 17.2655 16.3074 17.3999 16.1509 17.3999H2.3498C1.41446 17.4165 0.630881 16.6541 0.567639 15.6659V15.5999C0.56859 14.6062 1.32915 13.8009 2.26763 13.7999H2.83429C3.30372 13.7999 3.68427 13.3969 3.68427 12.8999V4.79995H10.4275L9.7841 5.48124C9.60447 5.66866 9.49147 5.91598 9.46422 6.18143L9.35684 7.20352C9.34801 7.3032 9.35696 7.40372 9.38319 7.49992H4.53427C4.3778 7.49992 4.25093 7.63422 4.25093 7.79993C4.25093 7.9656 4.37778 8.09991 4.53427 8.09991H5.38428V16.1999C5.38428 16.3655 5.51113 16.4999 5.66763 16.4999C5.82412 16.4999 5.95097 16.3656 5.95097 16.1999V11.9999H9.0676V14.3999H7.08427C6.9278 14.3999 6.80095 14.5342 6.80095 14.6999C6.80095 14.8655 6.9278 14.9999 7.08427 14.9999H12.7509C13.0639 14.9999 13.3175 14.7312 13.3175 14.3999V9.89992C13.3175 9.73425 13.1907 9.59991 13.0342 9.59991C12.8778 9.59991 12.7509 9.73422 12.7509 9.89992V11.3999H5.95094V8.09994H10.1182C10.1458 8.1 10.1735 8.0984 10.2009 8.09514L11.1691 7.97845C11.4148 7.94893 11.6441 7.8333 11.8207 7.64995L14.509 4.79998H16.1509V4.79995ZM12.7509 11.9999V14.3999H9.63423V11.9999H12.7509ZM16.3463 2.00457L15.9304 2.44526L14.6917 1.13367L15.1079 0.692983C15.1624 0.633809 15.237 0.600284 15.315 0.599988C15.3945 0.600195 15.4705 0.634135 15.5261 0.694197L16.3455 1.56C16.4025 1.61941 16.4345 1.70062 16.4342 1.78529C16.434 1.86792 16.4023 1.94696 16.3463 2.00457Z" fill="#2F455C" fill-opacity="0.45"/>
</g>
<defs>
<clipPath id="clip0">
<rect width="17" height="18" fill="white"/>
</clipPath>
</defs>
</svg>
